G04 Layer_Physical_Order=1*
G04 Layer_Color=255*
%FSLAX25Y25*%
%MOIN*%
G70*
G01*
G75*
%ADD10R,0.16142X0.07874*%
%ADD11R,0.12598X0.06299*%
%ADD12R,0.07480X0.05118*%
%ADD13R,0.05512X0.08661*%
%ADD14R,0.09843X0.07874*%
%ADD15R,0.08858X0.01969*%
%ADD16R,0.01181X0.05709*%
%ADD17R,0.05709X0.01181*%
%ADD18O,0.02362X0.08661*%
%ADD19R,0.12323X0.12323*%
%ADD20O,0.00787X0.03347*%
%ADD21O,0.03347X0.00787*%
%ADD22O,0.01181X0.07087*%
%ADD23O,0.07087X0.01181*%
%ADD24O,0.01181X0.05118*%
%ADD25O,0.05118X0.01181*%
%ADD26R,0.06693X0.07874*%
%ADD27R,0.06693X0.11811*%
%ADD28R,0.05000X0.05000*%
%ADD29R,0.05000X0.05000*%
%ADD30R,0.02362X0.04528*%
%ADD31R,0.07874X0.11811*%
%ADD32R,0.12992X0.09449*%
%ADD33R,0.03937X0.09449*%
%ADD34R,0.03937X0.05906*%
%ADD35C,0.03150*%
%ADD36C,0.01969*%
%ADD37C,0.01181*%
%ADD38C,0.03937*%
%ADD39C,0.01378*%
%ADD40C,0.01024*%
%ADD41C,0.00787*%
%ADD42C,0.07087*%
%ADD43C,0.07874*%
%ADD44C,0.17716*%
%ADD45C,0.05906*%
%ADD46C,0.15748*%
%ADD47C,0.08268*%
%ADD48C,0.01969*%
G36*
X342162Y49252D02*
X341995Y49134D01*
X341847Y48936D01*
X341719Y48660D01*
X341611Y48305D01*
X341522Y47870D01*
X341453Y47357D01*
X341376Y46122D01*
X341522Y44366D01*
X341611Y43932D01*
X341719Y43576D01*
X341847Y43300D01*
X341995Y43102D01*
X342162Y42984D01*
X342349Y42944D01*
X338412D01*
X338599Y42984D01*
X338766Y43102D01*
X338914Y43300D01*
X339042Y43576D01*
X339150Y43932D01*
X339239Y44366D01*
X339307Y44879D01*
X339384Y46115D01*
X339239Y47870D01*
X339150Y48305D01*
X339042Y48660D01*
X338914Y48936D01*
X338766Y49134D01*
X338599Y49252D01*
X338412Y49292D01*
X342349D01*
X342162Y49252D01*
D02*
G37*
G36*
X363618D02*
X363451Y49134D01*
X363303Y48936D01*
X363176Y48660D01*
X363067Y48305D01*
X362979Y47870D01*
X362910Y47357D01*
X362831Y46093D01*
X362821Y45343D01*
X360853D01*
X360843Y46093D01*
X360695Y47870D01*
X360607Y48305D01*
X360498Y48660D01*
X360370Y48936D01*
X360223Y49134D01*
X360055Y49252D01*
X359869Y49292D01*
X363806D01*
X363618Y49252D01*
D02*
G37*
G36*
X209891Y50259D02*
X209877Y50036D01*
X209946Y49758D01*
X210099Y49424D01*
X210336Y49034D01*
X210656Y48588D01*
X211060Y48087D01*
X211174Y47962D01*
X212081Y47162D01*
X212531Y46835D01*
X212916Y46603D01*
X213235Y46463D01*
X213488Y46417D01*
X213675Y46465D01*
X213796Y46606D01*
X212024Y42834D01*
X212075Y43045D01*
X212053Y43301D01*
X211958Y43604D01*
X211788Y43953D01*
X211546Y44347D01*
X211229Y44788D01*
X210839Y45274D01*
X210303Y45870D01*
X209042Y46974D01*
X208596Y47294D01*
X208206Y47531D01*
X207872Y47684D01*
X207594Y47753D01*
X207371Y47739D01*
X207204Y47642D01*
X209988Y50426D01*
X209891Y50259D01*
D02*
G37*
G36*
X293091Y43270D02*
X293036Y43255D01*
X292961Y43216D01*
X292865Y43152D01*
X292751Y43065D01*
X292461Y42818D01*
X291644Y42034D01*
X290808Y42869D01*
X291040Y43104D01*
X291990Y44186D01*
X292029Y44262D01*
X292044Y44317D01*
X293091Y43270D01*
D02*
G37*
G36*
X231319Y42344D02*
X230918Y41934D01*
X229988Y40860D01*
X229769Y40554D01*
X229596Y40275D01*
X229468Y40022D01*
X229386Y39796D01*
X229349Y39595D01*
X229358Y39421D01*
X228724Y42661D01*
X228779Y42533D01*
X228878Y42469D01*
X229024Y42470D01*
X229215Y42536D01*
X229452Y42667D01*
X229734Y42862D01*
X230062Y43123D01*
X230854Y43838D01*
X231319Y44293D01*
Y42344D01*
D02*
G37*
G36*
X345317Y54986D02*
X345436Y54819D01*
X345633Y54671D01*
X345909Y54543D01*
X346265Y54435D01*
X346699Y54346D01*
X347213Y54277D01*
X348476Y54199D01*
X349227Y54189D01*
Y52220D01*
X348476Y52211D01*
X346699Y52063D01*
X346265Y51974D01*
X345909Y51866D01*
X345633Y51738D01*
X345436Y51591D01*
X345317Y51423D01*
X345278Y51236D01*
Y55173D01*
X345317Y54986D01*
D02*
G37*
G36*
X356940Y51236D02*
X356900Y51423D01*
X356782Y51591D01*
X356584Y51738D01*
X356308Y51866D01*
X355953Y51974D01*
X355518Y52063D01*
X355005Y52132D01*
X353741Y52211D01*
X352991Y52220D01*
Y54189D01*
X353741Y54199D01*
X355518Y54346D01*
X355953Y54435D01*
X356308Y54543D01*
X356584Y54671D01*
X356782Y54819D01*
X356900Y54986D01*
X356940Y55173D01*
Y51236D01*
D02*
G37*
G36*
X208092Y52537D02*
X208192Y50850D01*
X208216Y50805D01*
X206784D01*
X206808Y50850D01*
X206829Y50932D01*
X206848Y51051D01*
X206864Y51206D01*
X206898Y51894D01*
X206909Y52913D01*
X208090D01*
X208092Y52537D01*
D02*
G37*
G36*
X241936Y59497D02*
X242622D01*
X242491Y59469D01*
X242374Y59386D01*
X242271Y59248D01*
X242181Y59054D01*
X242105Y58805D01*
X242043Y58500D01*
X241995Y58141D01*
X241972Y57775D01*
X242351Y51358D01*
X242478Y50822D01*
X242623Y50464D01*
X242785Y50283D01*
X242054Y50275D01*
X242168Y48487D01*
X242223Y47921D01*
X240265D01*
X240414Y50257D01*
X239921Y50251D01*
X240041Y50414D01*
X240149Y50760D01*
X240244Y51287D01*
X240327Y51996D01*
X240498Y55216D01*
X240525Y57532D01*
X240445Y58500D01*
X240383Y58805D01*
X240307Y59054D01*
X240217Y59248D01*
X240114Y59386D01*
X239997Y59469D01*
X239866Y59497D01*
X240548D01*
X240555Y60075D01*
X241933D01*
X241936Y59497D01*
D02*
G37*
G36*
X325234Y48089D02*
X325014Y48265D01*
X324668Y48423D01*
X324197Y48562D01*
X323599Y48682D01*
X322876Y48784D01*
X321052Y48932D01*
X317373Y49016D01*
Y50984D01*
X318725Y50994D01*
X323599Y51318D01*
X324197Y51438D01*
X324668Y51577D01*
X325014Y51735D01*
X325234Y51911D01*
Y48089D01*
D02*
G37*
G36*
X329506Y47771D02*
X329426Y47474D01*
X329356Y47043D01*
X329295Y46477D01*
X329217Y44954D01*
X329283Y44165D01*
X329371Y43731D01*
X329480Y43376D01*
X329608Y43099D01*
X329755Y42902D01*
X329922Y42783D01*
X330110Y42744D01*
X329153D01*
X329125Y40268D01*
X327157D01*
X327142Y41466D01*
X327046Y42744D01*
X326172D01*
X326360Y42783D01*
X326527Y42902D01*
X326674Y43099D01*
X326802Y43376D01*
X326911Y43731D01*
X326956Y43954D01*
X326919Y44450D01*
X326785Y45241D01*
X326622Y45931D01*
X326429Y46518D01*
X326206Y47004D01*
X325954Y47388D01*
X325672Y47670D01*
X329596Y47934D01*
X329506Y47771D01*
D02*
G37*
G36*
X362831Y25279D02*
X362979Y23508D01*
X363067Y23075D01*
X363176Y22720D01*
X363303Y22445D01*
X363451Y22248D01*
X363618Y22130D01*
X363806Y22090D01*
X359869D01*
X360055Y22130D01*
X360223Y22248D01*
X360370Y22445D01*
X360498Y22720D01*
X360607Y23075D01*
X360695Y23508D01*
X360764Y24020D01*
X360843Y25279D01*
X360853Y26027D01*
X362821D01*
X362831Y25279D01*
D02*
G37*
G36*
X323743Y23788D02*
X319201Y24079D01*
Y25457D01*
X319544Y25460D01*
X323177Y25692D01*
X323743Y25747D01*
Y23788D01*
D02*
G37*
G36*
X335483Y19306D02*
X337619Y19184D01*
X340380Y19150D01*
Y17181D01*
X338931Y17173D01*
X335483Y16931D01*
Y16197D01*
X335444Y16384D01*
X335325Y16551D01*
X335128Y16699D01*
X334851Y16827D01*
X334693Y16875D01*
X333141Y16766D01*
X332661Y16639D01*
X332320Y16495D01*
X332117Y16334D01*
Y17173D01*
X331534Y17181D01*
Y19150D01*
X332117Y19157D01*
Y19996D01*
X332320Y19836D01*
X332661Y19692D01*
X333141Y19565D01*
X333760Y19454D01*
X334399Y19376D01*
X334496Y19396D01*
X334851Y19504D01*
X335128Y19632D01*
X335325Y19780D01*
X335444Y19947D01*
X335483Y20134D01*
Y19306D01*
D02*
G37*
G36*
X345317Y19947D02*
X345436Y19780D01*
X345633Y19632D01*
X345909Y19504D01*
X346265Y19396D01*
X346699Y19307D01*
X347213Y19238D01*
X348476Y19159D01*
X349227Y19150D01*
Y17181D01*
X348476Y17171D01*
X346699Y17024D01*
X346265Y16935D01*
X345909Y16827D01*
X345633Y16699D01*
X345436Y16551D01*
X345317Y16384D01*
X345278Y16197D01*
Y20134D01*
X345317Y19947D01*
D02*
G37*
G36*
X356940Y16197D02*
X356900Y16384D01*
X356782Y16551D01*
X356584Y16699D01*
X356308Y16827D01*
X355953Y16935D01*
X355518Y17024D01*
X355005Y17093D01*
X353741Y17171D01*
X352991Y17181D01*
Y19150D01*
X353741Y19159D01*
X355518Y19307D01*
X355953Y19396D01*
X356308Y19504D01*
X356584Y19632D01*
X356782Y19780D01*
X356900Y19947D01*
X356940Y20134D01*
Y16197D01*
D02*
G37*
G36*
X293711Y37726D02*
X294713Y36849D01*
X294980Y36657D01*
X295214Y36515D01*
X295414Y36424D01*
X295582Y36382D01*
X295715Y36390D01*
X295815Y36449D01*
X294145Y34778D01*
X294203Y34879D01*
X294212Y35012D01*
X294170Y35179D01*
X294078Y35380D01*
X293936Y35614D01*
X293744Y35881D01*
X293502Y36181D01*
X292867Y36883D01*
X292475Y37284D01*
X293310Y38119D01*
X293711Y37726D01*
D02*
G37*
G36*
X227515Y40944D02*
X227551Y40929D01*
X227597Y40916D01*
X227653Y40905D01*
X227718Y40896D01*
X227876Y40882D01*
X228185Y40874D01*
Y39496D01*
X228073Y39495D01*
X227653Y39465D01*
X227597Y39454D01*
X227551Y39441D01*
X227515Y39426D01*
X227488Y39410D01*
Y40960D01*
X227515Y40944D01*
D02*
G37*
G36*
X320543Y31288D02*
X316001Y31579D01*
Y32957D01*
X316344Y32960D01*
X319977Y33192D01*
X320543Y33247D01*
Y31288D01*
D02*
G37*
G36*
X306456Y29400D02*
X306527Y29299D01*
X306646Y29211D01*
X306812Y29134D01*
X307026Y29069D01*
X307287Y29016D01*
X307595Y28974D01*
X308355Y28927D01*
X308806Y28921D01*
Y27740D01*
X308355Y27734D01*
X307287Y27646D01*
X307026Y27593D01*
X306812Y27527D01*
X306646Y27451D01*
X306527Y27362D01*
X306456Y27262D01*
X306432Y27150D01*
Y29512D01*
X306456Y29400D01*
D02*
G37*
G36*
X301293Y30279D02*
X301336Y30207D01*
X301407Y30109D01*
X301505Y29988D01*
X301968Y29477D01*
X302681Y28748D01*
X301845Y27913D01*
X301578Y28179D01*
X300314Y29300D01*
X300265Y29315D01*
X301278Y30328D01*
X301293Y30279D01*
D02*
G37*
G36*
X222182Y101524D02*
X222044Y101542D01*
X221881Y101519D01*
X221693Y101455D01*
X221480Y101349D01*
X221242Y101201D01*
X220979Y101012D01*
X220378Y100510D01*
X220164Y100306D01*
X219389Y99420D01*
X219197Y99153D01*
X219055Y98919D01*
X218963Y98719D01*
X218921Y98551D01*
X218930Y98418D01*
X218988Y98318D01*
X217318Y99988D01*
X217418Y99929D01*
X217551Y99921D01*
X217719Y99963D01*
X217919Y100055D01*
X218153Y100197D01*
X218420Y100389D01*
X218721Y100631D01*
X218846Y100745D01*
X219362Y101329D01*
X219556Y101597D01*
X219692Y101823D01*
X219769Y102008D01*
X219789Y102151D01*
X219750Y102252D01*
X219654Y102312D01*
X222182Y101524D01*
D02*
G37*
G36*
X222722Y107607D02*
X222785Y106543D01*
X222802Y106502D01*
X222821Y106488D01*
X221439D01*
X221458Y106502D01*
X221475Y106543D01*
X221490Y106612D01*
X221503Y106709D01*
X221523Y106985D01*
X221539Y107870D01*
X222721D01*
X222722Y107607D01*
D02*
G37*
G36*
X250574Y98356D02*
X250420Y98460D01*
X250089Y98552D01*
X249581Y98634D01*
X248897Y98705D01*
X245784Y98852D01*
X241082Y98901D01*
Y100869D01*
X242826Y100875D01*
X250420Y101311D01*
X250574Y101414D01*
Y98356D01*
D02*
G37*
G36*
X240689Y94163D02*
X239311D01*
X239308Y94506D01*
X239076Y98139D01*
X239021Y98705D01*
X240979D01*
X240689Y94163D01*
D02*
G37*
G36*
X203394Y96809D02*
X202000Y96811D01*
Y98189D01*
X203394Y98191D01*
Y96809D01*
D02*
G37*
G36*
X357574Y224654D02*
X357737Y224644D01*
X358487Y224634D01*
Y222665D01*
X357737Y222656D01*
X357574Y222642D01*
Y221681D01*
X357535Y221868D01*
X357417Y222035D01*
X357220Y222183D01*
X356944Y222311D01*
X356590Y222419D01*
X356157Y222508D01*
X356082Y222518D01*
X355960Y222508D01*
X355525Y222419D01*
X355170Y222311D01*
X354894Y222183D01*
X354696Y222035D01*
X354578Y221868D01*
X354538Y221681D01*
Y222646D01*
X354385Y222656D01*
X353637Y222665D01*
Y224634D01*
X354385Y224644D01*
X354538Y224656D01*
Y225618D01*
X354578Y225431D01*
X354696Y225264D01*
X354894Y225116D01*
X355170Y224988D01*
X355525Y224880D01*
X355960Y224791D01*
X356035Y224781D01*
X356157Y224791D01*
X356590Y224880D01*
X356944Y224988D01*
X357220Y225116D01*
X357417Y225264D01*
X357535Y225431D01*
X357574Y225618D01*
Y224654D01*
D02*
G37*
G36*
X349574Y232181D02*
X349535Y232368D01*
X349417Y232535D01*
X349220Y232683D01*
X348944Y232811D01*
X348590Y232919D01*
X348157Y233008D01*
X347645Y233077D01*
X346385Y233155D01*
X345637Y233165D01*
Y235134D01*
X346385Y235144D01*
X348157Y235291D01*
X348590Y235380D01*
X348944Y235488D01*
X349220Y235616D01*
X349417Y235764D01*
X349535Y235931D01*
X349574Y236118D01*
Y232181D01*
D02*
G37*
G36*
X357586Y218059D02*
X357737Y218049D01*
X358487Y218039D01*
Y216071D01*
X357737Y216061D01*
X357586Y216049D01*
Y215087D01*
X357547Y215274D01*
X357428Y215441D01*
X357231Y215589D01*
X356954Y215717D01*
X356599Y215825D01*
X356165Y215913D01*
X356086Y215924D01*
X355960Y215913D01*
X355525Y215825D01*
X355170Y215717D01*
X354894Y215589D01*
X354696Y215441D01*
X354578Y215274D01*
X354538Y215087D01*
Y216052D01*
X354387Y216061D01*
X353637Y216071D01*
Y218039D01*
X354387Y218049D01*
X354538Y218062D01*
Y219024D01*
X354578Y218837D01*
X354696Y218669D01*
X354894Y218522D01*
X355170Y218394D01*
X355525Y218285D01*
X355960Y218197D01*
X356038Y218186D01*
X356165Y218197D01*
X356599Y218285D01*
X356954Y218394D01*
X357231Y218522D01*
X357428Y218669D01*
X357547Y218837D01*
X357586Y219024D01*
Y218059D01*
D02*
G37*
G36*
X349574Y204457D02*
X349535Y204644D01*
X349417Y204811D01*
X349220Y204959D01*
X348944Y205087D01*
X348590Y205195D01*
X348157Y205283D01*
X347645Y205352D01*
X346385Y205431D01*
X345637Y205441D01*
Y207410D01*
X346385Y207419D01*
X348157Y207567D01*
X348590Y207656D01*
X348944Y207764D01*
X349220Y207892D01*
X349417Y208039D01*
X349535Y208207D01*
X349574Y208394D01*
Y204457D01*
D02*
G37*
G36*
X344916Y205729D02*
X344477Y205281D01*
X343214Y203807D01*
X343022Y203519D01*
X342880Y203262D01*
X342787Y203038D01*
X342744Y202845D01*
X342750Y202684D01*
X340479Y204955D01*
X340640Y204948D01*
X340833Y204992D01*
X341057Y205084D01*
X341314Y205227D01*
X341602Y205419D01*
X341923Y205660D01*
X342660Y206292D01*
X343525Y207121D01*
X344916Y205729D01*
D02*
G37*
G36*
X217510Y95000D02*
X217409Y94929D01*
X217321Y94810D01*
X217244Y94644D01*
X217179Y94430D01*
X217126Y94169D01*
X217085Y93861D01*
X217037Y93101D01*
X217032Y92650D01*
X215850D01*
X215844Y93101D01*
X215756Y94169D01*
X215703Y94430D01*
X215638Y94644D01*
X215561Y94810D01*
X215472Y94929D01*
X215372Y95000D01*
X215260Y95024D01*
X217622D01*
X217510Y95000D01*
D02*
G37*
G36*
X201747Y84784D02*
X201630Y84701D01*
X201527Y84562D01*
X201437Y84369D01*
X201361Y84119D01*
X201299Y83815D01*
X201251Y83455D01*
X201196Y82569D01*
X201189Y82043D01*
X199811D01*
X199804Y82569D01*
X199701Y83815D01*
X199639Y84119D01*
X199563Y84369D01*
X199473Y84562D01*
X199370Y84701D01*
X199253Y84784D01*
X199122Y84811D01*
X201878D01*
X201747Y84784D01*
D02*
G37*
G36*
X241940Y84548D02*
X242043Y83303D01*
X242105Y82998D01*
X242181Y82749D01*
X242271Y82555D01*
X242374Y82417D01*
X242491Y82334D01*
X242622Y82306D01*
X239866D01*
X239997Y82334D01*
X240114Y82417D01*
X240217Y82555D01*
X240307Y82749D01*
X240383Y82998D01*
X240445Y83303D01*
X240493Y83662D01*
X240548Y84548D01*
X240555Y85074D01*
X241933D01*
X241940Y84548D01*
D02*
G37*
G36*
X168414Y79122D02*
X168386Y79253D01*
X168303Y79370D01*
X168166Y79473D01*
X167973Y79563D01*
X167725Y79639D01*
X167421Y79701D01*
X167063Y79749D01*
X166204Y79803D01*
X164980Y79701D01*
X164677Y79639D01*
X164429Y79563D01*
X164236Y79473D01*
X164098Y79370D01*
X164016Y79253D01*
X163988Y79122D01*
Y81878D01*
X164016Y81747D01*
X164098Y81630D01*
X164236Y81527D01*
X164429Y81437D01*
X164677Y81361D01*
X164980Y81299D01*
X165338Y81251D01*
X166198Y81197D01*
X167421Y81299D01*
X167725Y81361D01*
X167973Y81437D01*
X168166Y81527D01*
X168303Y81630D01*
X168386Y81747D01*
X168414Y81878D01*
Y79122D01*
D02*
G37*
G36*
X335025Y55587D02*
X335393Y55174D01*
X335432Y55118D01*
X335460Y55070D01*
X335477Y55031D01*
X335483Y55000D01*
Y52502D01*
X335464Y52492D01*
X335405Y52524D01*
X335307Y52599D01*
X335170Y52716D01*
X333898Y53934D01*
X333526Y54304D01*
X334918Y55696D01*
X335025Y55587D01*
D02*
G37*
G36*
X183638Y63163D02*
X183267Y62766D01*
X182936Y62352D01*
X182644Y61922D01*
X182390Y61475D01*
X182176Y61013D01*
X182001Y60534D01*
X181864Y60040D01*
X181767Y59529D01*
X181765Y59514D01*
X181799Y59106D01*
X181861Y58802D01*
X181937Y58553D01*
X182027Y58359D01*
X182130Y58221D01*
X182247Y58138D01*
X182378Y58110D01*
X180498D01*
X180311Y58055D01*
X180308Y58110D01*
X179622D01*
X179753Y58138D01*
X179870Y58221D01*
X179973Y58359D01*
X180063Y58553D01*
X180139Y58802D01*
X180193Y59070D01*
X180063Y59461D01*
X179870Y59819D01*
X179622Y60122D01*
X179319Y60370D01*
X178961Y60563D01*
X178547Y60701D01*
X178079Y60783D01*
X177555Y60811D01*
X177959Y62189D01*
X178502Y62208D01*
X179029Y62267D01*
X179540Y62364D01*
X180034Y62501D01*
X180513Y62676D01*
X180975Y62890D01*
X181421Y63144D01*
X181852Y63436D01*
X182265Y63767D01*
X182663Y64138D01*
X183638Y63163D01*
D02*
G37*
G36*
X246086Y92184D02*
X246040Y92108D01*
X245999Y91982D01*
X245964Y91805D01*
X245934Y91578D01*
X245891Y90972D01*
X245866Y89685D01*
X243898D01*
X243895Y90165D01*
X243764Y91982D01*
X243724Y92108D01*
X243677Y92184D01*
X243626Y92209D01*
X246138D01*
X246086Y92184D01*
D02*
G37*
G36*
X201196Y92124D02*
X201299Y90878D01*
X201361Y90574D01*
X201437Y90324D01*
X201527Y90131D01*
X201630Y89992D01*
X201747Y89909D01*
X201878Y89881D01*
X199122D01*
X199253Y89909D01*
X199370Y89992D01*
X199473Y90131D01*
X199563Y90324D01*
X199639Y90574D01*
X199701Y90878D01*
X199749Y91238D01*
X199804Y92124D01*
X199811Y92649D01*
X201189D01*
X201196Y92124D01*
D02*
G37*
G36*
X238665Y88411D02*
X238292Y88029D01*
X237410Y87002D01*
X237194Y86700D01*
X237018Y86417D01*
X236880Y86155D01*
X236782Y85913D01*
X236723Y85690D01*
X236704Y85488D01*
Y89385D01*
X236723Y89217D01*
X236782Y89108D01*
X236880Y89059D01*
X237018Y89068D01*
X237194Y89135D01*
X237410Y89262D01*
X237665Y89448D01*
X237959Y89693D01*
X238665Y90359D01*
Y88411D01*
D02*
G37*
G36*
X188905Y84789D02*
X188819Y84723D01*
X188742Y84612D01*
X188676Y84457D01*
X188620Y84258D01*
X188574Y84015D01*
X188538Y83727D01*
X188497Y83019D01*
X188492Y82598D01*
X187311D01*
X187306Y83019D01*
X187229Y84015D01*
X187183Y84258D01*
X187127Y84457D01*
X187061Y84612D01*
X186985Y84723D01*
X186898Y84789D01*
X186801Y84811D01*
X189002D01*
X188905Y84789D01*
D02*
G37*
G36*
X224691Y94553D02*
X224358Y94235D01*
X224060Y93816D01*
X223797Y93297D01*
X223569Y92677D01*
X223376Y91957D01*
X223218Y91136D01*
X223095Y90214D01*
X222955Y88070D01*
X222937Y86847D01*
X221756D01*
X221747Y88197D01*
X221434Y93087D01*
X221318Y93693D01*
X221184Y94174D01*
X221032Y94531D01*
X220862Y94763D01*
X224691Y94553D01*
D02*
G37*
D10*
X202000Y205000D02*
D03*
X236252D02*
D03*
D11*
X266000Y163000D02*
D03*
X242378D02*
D03*
X266000Y205000D02*
D03*
X289622D02*
D03*
D12*
X187902Y87347D02*
D03*
Y109000D02*
D03*
X200500D02*
D03*
Y87347D02*
D03*
D13*
X181000Y79000D02*
D03*
Y53803D02*
D03*
X171158Y79000D02*
D03*
Y53803D02*
D03*
D14*
X361837Y53205D02*
D03*
Y18165D02*
D03*
X340380Y53205D02*
D03*
Y18165D02*
D03*
D15*
X339888Y41984D02*
D03*
Y38835D02*
D03*
Y35685D02*
D03*
Y32535D02*
D03*
Y29386D02*
D03*
D16*
X139299Y172476D02*
D03*
X141268D02*
D03*
X143236D02*
D03*
X145205D02*
D03*
X147173D02*
D03*
X149142D02*
D03*
X151110D02*
D03*
X153079D02*
D03*
X155047D02*
D03*
X157016D02*
D03*
X158984D02*
D03*
X160953D02*
D03*
X162921D02*
D03*
X164890D02*
D03*
X166858D02*
D03*
X168827D02*
D03*
X170795D02*
D03*
X172764D02*
D03*
X174732D02*
D03*
X176701D02*
D03*
Y119524D02*
D03*
X174732D02*
D03*
X172764D02*
D03*
X170795D02*
D03*
X168827D02*
D03*
X166858D02*
D03*
X164890D02*
D03*
X162921D02*
D03*
X160953D02*
D03*
X158984D02*
D03*
X157016D02*
D03*
X155047D02*
D03*
X153079D02*
D03*
X151110D02*
D03*
X149142D02*
D03*
X147173D02*
D03*
X145205D02*
D03*
X143236D02*
D03*
X141268D02*
D03*
X139299D02*
D03*
D17*
X184476Y164701D02*
D03*
Y162732D02*
D03*
Y160764D02*
D03*
Y158795D02*
D03*
Y156827D02*
D03*
Y154858D02*
D03*
Y152890D02*
D03*
Y150921D02*
D03*
Y148953D02*
D03*
Y146984D02*
D03*
Y145016D02*
D03*
Y143047D02*
D03*
Y141079D02*
D03*
Y139110D02*
D03*
Y137142D02*
D03*
Y135173D02*
D03*
Y133205D02*
D03*
Y131236D02*
D03*
Y129268D02*
D03*
Y127299D02*
D03*
X131524D02*
D03*
Y129268D02*
D03*
Y131236D02*
D03*
Y133205D02*
D03*
Y135173D02*
D03*
Y137142D02*
D03*
Y139110D02*
D03*
Y141079D02*
D03*
Y143047D02*
D03*
Y145016D02*
D03*
Y146984D02*
D03*
Y148953D02*
D03*
Y150921D02*
D03*
Y152890D02*
D03*
Y154858D02*
D03*
Y156827D02*
D03*
Y158795D02*
D03*
Y160764D02*
D03*
Y162732D02*
D03*
Y164701D02*
D03*
D18*
X237500Y149449D02*
D03*
X232500D02*
D03*
X227500D02*
D03*
X222500D02*
D03*
X237500Y130551D02*
D03*
X232500D02*
D03*
X227500D02*
D03*
X222500D02*
D03*
D19*
X300294Y30299D02*
D03*
D20*
X306200Y20752D02*
D03*
X304232D02*
D03*
X302263D02*
D03*
X300294D02*
D03*
X298326D02*
D03*
X296357D02*
D03*
X294389D02*
D03*
Y39846D02*
D03*
X296357D02*
D03*
X298326D02*
D03*
X300294D02*
D03*
X302263D02*
D03*
X304232D02*
D03*
X306200D02*
D03*
D21*
X290747Y24394D02*
D03*
Y26362D02*
D03*
Y28331D02*
D03*
Y30299D02*
D03*
Y32268D02*
D03*
Y34236D02*
D03*
Y36205D02*
D03*
X309842D02*
D03*
Y34236D02*
D03*
Y32268D02*
D03*
Y30299D02*
D03*
Y28331D02*
D03*
Y26362D02*
D03*
Y24394D02*
D03*
D22*
X214472Y86847D02*
D03*
X216441D02*
D03*
X218409D02*
D03*
X220378D02*
D03*
X222346D02*
D03*
X224315D02*
D03*
X226284D02*
D03*
X228252D02*
D03*
X230221D02*
D03*
X232189D02*
D03*
X234157D02*
D03*
X236126D02*
D03*
Y54957D02*
D03*
X234157D02*
D03*
X232189D02*
D03*
X230221D02*
D03*
X228252D02*
D03*
X226284D02*
D03*
X224315D02*
D03*
X222346D02*
D03*
X220378D02*
D03*
X218409D02*
D03*
X216441D02*
D03*
D23*
X241244Y81728D02*
D03*
Y79760D02*
D03*
Y77791D02*
D03*
Y75823D02*
D03*
Y73854D02*
D03*
Y71886D02*
D03*
Y69917D02*
D03*
Y67949D02*
D03*
Y65980D02*
D03*
Y64012D02*
D03*
Y62043D02*
D03*
Y60075D02*
D03*
X209354Y62043D02*
D03*
Y64012D02*
D03*
Y65980D02*
D03*
Y67949D02*
D03*
Y69917D02*
D03*
Y71886D02*
D03*
Y73854D02*
D03*
Y75823D02*
D03*
Y77791D02*
D03*
Y79760D02*
D03*
Y81728D02*
D03*
D24*
X214472Y54957D02*
D03*
D25*
X209354Y60075D02*
D03*
D26*
X240158Y6299D02*
D03*
X195669D02*
D03*
D27*
X240158Y35827D02*
D03*
X195669D02*
D03*
D28*
X155000Y209000D02*
D03*
X144370D02*
D03*
X90630Y82500D02*
D03*
X80000D02*
D03*
X166000Y202000D02*
D03*
X155370D02*
D03*
X90630Y92500D02*
D03*
X80000D02*
D03*
X90630Y102500D02*
D03*
X80000D02*
D03*
X90630Y112500D02*
D03*
X80000D02*
D03*
X90630Y122500D02*
D03*
X80000D02*
D03*
X90630Y132500D02*
D03*
X80000D02*
D03*
X90630Y182500D02*
D03*
X80000D02*
D03*
X218000Y20300D02*
D03*
X228630D02*
D03*
X193000Y124000D02*
D03*
X203630D02*
D03*
X220130Y27000D02*
D03*
X209500D02*
D03*
X216500Y97500D02*
D03*
X205870D02*
D03*
X193000Y131000D02*
D03*
X203630D02*
D03*
X222130Y104000D02*
D03*
X211500D02*
D03*
X195000Y172000D02*
D03*
X205630D02*
D03*
X195000Y163000D02*
D03*
X205630D02*
D03*
X174000Y202000D02*
D03*
X184630D02*
D03*
X90630Y202500D02*
D03*
X80000D02*
D03*
X90630Y192500D02*
D03*
X80000D02*
D03*
X90630Y172500D02*
D03*
X80000D02*
D03*
X90630Y162500D02*
D03*
X80000D02*
D03*
X90630Y152500D02*
D03*
X80000D02*
D03*
X90630Y142500D02*
D03*
X80000D02*
D03*
X90630Y42500D02*
D03*
X80000D02*
D03*
X90630Y52500D02*
D03*
X80000D02*
D03*
X90630Y62500D02*
D03*
X80000D02*
D03*
X90630Y72500D02*
D03*
X80000D02*
D03*
D29*
X352062Y234150D02*
D03*
Y223520D02*
D03*
X352062Y217055D02*
D03*
Y206425D02*
D03*
X154191Y63000D02*
D03*
Y52370D02*
D03*
X207500Y39500D02*
D03*
Y50130D02*
D03*
X328341Y29638D02*
D03*
Y40268D02*
D03*
X360062Y234279D02*
D03*
Y223650D02*
D03*
X360062Y206425D02*
D03*
Y217055D02*
D03*
X176000Y103000D02*
D03*
Y92370D02*
D03*
X214500Y33500D02*
D03*
Y44130D02*
D03*
X244882Y105315D02*
D03*
Y94685D02*
D03*
X226882Y40185D02*
D03*
Y29555D02*
D03*
X154000Y69370D02*
D03*
Y80000D02*
D03*
X161500Y63000D02*
D03*
Y52370D02*
D03*
Y69500D02*
D03*
Y80130D02*
D03*
X144000Y191000D02*
D03*
Y201630D02*
D03*
X146000Y103000D02*
D03*
Y92370D02*
D03*
X153000Y103000D02*
D03*
Y92370D02*
D03*
X160000Y109000D02*
D03*
Y98370D02*
D03*
X169000Y103000D02*
D03*
Y92370D02*
D03*
X215000Y144000D02*
D03*
Y133370D02*
D03*
X190000Y179000D02*
D03*
Y189630D02*
D03*
X182000Y179000D02*
D03*
Y189630D02*
D03*
X166000Y184000D02*
D03*
Y194630D02*
D03*
X136000Y190370D02*
D03*
Y201000D02*
D03*
X174000Y184000D02*
D03*
Y194630D02*
D03*
D30*
X155000Y195429D02*
D03*
X158740Y186571D02*
D03*
X151260D02*
D03*
D31*
X281496Y43307D02*
D03*
X267520Y43580D02*
D03*
D32*
X266000Y110583D02*
D03*
D33*
X256945Y133417D02*
D03*
X266000Y133417D02*
D03*
X275055Y133417D02*
D03*
D34*
X199400Y148000D02*
D03*
Y144063D02*
D03*
D35*
X301400Y196400D02*
X313500Y208500D01*
X272500Y196400D02*
X301400D01*
X266500Y190400D02*
X272500Y196400D01*
X313500Y208500D02*
Y209500D01*
X266500Y184000D02*
Y190400D01*
D36*
X280000Y149000D02*
Y168100D01*
X276100Y172000D02*
X280000Y168100D01*
X276100Y172000D02*
Y185300D01*
X294500Y225100D02*
X328400D01*
X275000Y125000D02*
Y137209D01*
X306400Y4800D02*
X319765Y18165D01*
X219685Y26615D02*
Y33500D01*
X147700Y63000D02*
X154191D01*
X251300Y44400D02*
Y56900D01*
X248300Y59900D02*
X251300Y56900D01*
X257200Y25000D02*
X266400D01*
X252400Y29800D02*
X257200Y25000D01*
X252400Y29800D02*
Y35200D01*
X281300Y24700D02*
Y58700D01*
X271400Y68600D02*
X281300Y58700D01*
Y24700D02*
X291000Y15000D01*
X181000Y189000D02*
X182000Y190000D01*
X198591Y147000D02*
X203000D01*
X203630Y131000D02*
Y146370D01*
X182000Y95000D02*
Y98000D01*
X203000Y147000D02*
X203630Y146370D01*
X226882Y29555D02*
X231400Y34073D01*
X209135Y29265D02*
X218050Y20350D01*
X196000Y35500D02*
Y35827D01*
X195669Y35500D02*
X196000D01*
X193000Y136400D02*
X193800Y137200D01*
X193000Y131000D02*
Y136400D01*
X186900Y9950D02*
X190551Y6299D01*
X186900Y9950D02*
Y14000D01*
X183900Y19900D02*
X199000D01*
X181100Y17100D02*
X183900Y19900D01*
X181100Y7900D02*
Y17100D01*
X177700Y4500D02*
X181100Y7900D01*
X199000Y19900D02*
X208700Y10200D01*
X145400Y34500D02*
X153400Y42500D01*
X138200Y39100D02*
X144600Y45500D01*
X185500D01*
X147130Y52370D02*
X154191D01*
X147000Y52500D02*
X147130Y52370D01*
X208700Y10200D02*
X220800D01*
X235900Y15800D02*
X240158Y11542D01*
X228400Y15800D02*
X235900D01*
X228400D02*
Y19685D01*
X213600Y15700D02*
X228400D01*
X210800Y18500D02*
X213600Y15700D01*
X210800Y18500D02*
Y20300D01*
X266400Y25000D02*
X286600Y4800D01*
X187927Y35827D02*
X195669D01*
X184100Y32000D02*
X187927Y35827D01*
X187000Y42500D02*
X199500Y55000D01*
X185500Y45500D02*
X196500Y56500D01*
X195669Y35500D02*
Y35827D01*
X198573D02*
X201427D01*
X196000D02*
X198573D01*
X205135Y29265D01*
X205100Y39500D02*
X207500D01*
X201427Y35827D02*
X205100Y39500D01*
X205135Y29265D02*
X209135D01*
X240158Y6299D02*
Y11542D01*
X231400Y29700D02*
Y34073D01*
X234252Y36925D01*
X205630Y149630D02*
Y163000D01*
X205600Y149600D02*
X205630Y149630D01*
X205600Y143000D02*
Y149600D01*
X193800Y137200D02*
X198000D01*
X147700Y63000D02*
Y65300D01*
X154191Y63000D02*
X161500D01*
X268000Y32000D02*
Y63697D01*
X266000Y110583D02*
X275700Y100883D01*
X275500Y100683D02*
X275700Y100883D01*
X254000Y83500D02*
X256500Y86000D01*
X268200D01*
X275500Y94500D02*
Y100683D01*
X238100Y104000D02*
X239415Y105315D01*
X222130Y104000D02*
X238100D01*
X244400Y119400D02*
X246800Y117000D01*
X227600Y119400D02*
X244400D01*
X222500Y124500D02*
X227600Y119400D01*
X249000Y126200D02*
X253100Y122100D01*
Y113533D02*
Y122100D01*
X244882Y105315D02*
X253100Y113533D01*
X248800Y126200D02*
X249000D01*
X245600Y123000D02*
X248800Y126200D01*
X328141Y40268D02*
Y49345D01*
X72500Y42500D02*
X80000D01*
X72500Y52500D02*
X80000D01*
X72500Y62500D02*
X80000D01*
X72500Y72500D02*
X80000D01*
X72500Y82500D02*
X80000D01*
X72500Y92500D02*
X80000D01*
X72500Y112500D02*
X80000D01*
X72500Y122500D02*
X80000D01*
X72500Y132500D02*
X80000D01*
X72500Y142500D02*
X80000D01*
X72500Y152500D02*
X80000D01*
X72500Y162500D02*
X80000D01*
X72500Y172500D02*
X80000D01*
X72500Y182500D02*
X80000D01*
X72500Y192500D02*
X80000D01*
X72500Y202500D02*
X80000D01*
X90630D02*
X100000D01*
X309400Y84700D02*
Y98900D01*
X183071Y0D02*
X354331D01*
X11811D02*
X183071D01*
X90630Y42500D02*
X100000D01*
X90630Y52500D02*
X100000D01*
X90630Y62500D02*
X100000D01*
X90630Y72500D02*
X100000D01*
X90630Y82500D02*
X100000D01*
X90630Y92500D02*
X100000D01*
X90630Y102500D02*
X100000D01*
X90630Y112500D02*
X100000D01*
X90630Y122500D02*
X100000D01*
X90630Y132500D02*
X100000D01*
X90630Y142500D02*
X100000D01*
X90630Y152500D02*
X100000D01*
X90630Y162500D02*
X100000D01*
X90630Y172500D02*
X100000D01*
X90630Y182500D02*
X100000D01*
X90630Y192500D02*
X100000D01*
X340380Y18165D02*
X361837D01*
X329800D02*
X340380D01*
X366142Y124016D02*
Y236221D01*
Y63400D02*
Y124016D01*
X11811Y248031D02*
X354331D01*
X0Y124016D02*
Y236221D01*
Y11811D02*
Y124016D01*
X298300Y61100D02*
X302600Y65400D01*
X298300Y47447D02*
Y61100D01*
Y47447D02*
X301495Y44252D01*
X302600Y65400D02*
Y77900D01*
X309400Y84700D01*
X309200Y65500D02*
X330200D01*
X337642Y72942D01*
X304300Y56100D02*
X307200Y59000D01*
X329433D01*
X286600Y4800D02*
X306400D01*
X334165Y32535D02*
X339888D01*
X331932Y34768D02*
X334165Y32535D01*
X323141Y34768D02*
X331932D01*
X190551Y6299D02*
X195669D01*
X234252Y42221D02*
X236126Y44094D01*
X234252Y36925D02*
Y42221D01*
X240000Y98803D02*
X241082Y99885D01*
X233900Y69653D02*
Y78703D01*
Y69653D02*
X235868Y67685D01*
X227027D02*
X235868D01*
X216882Y77830D02*
X227027Y67685D01*
X207500Y50130D02*
X213500Y44130D01*
X214500D01*
X219685Y33500D02*
Y36685D01*
X214500Y33500D02*
X219685D01*
Y36685D02*
X223185Y40185D01*
X226882D01*
X319765Y18165D02*
X329800D01*
X293400Y112100D02*
X306600Y98900D01*
X287900Y112100D02*
X293400D01*
X240158Y35827D02*
X251773D01*
X252400Y35200D01*
X153400Y42500D02*
X187000D01*
X361837Y18165D02*
Y53205D01*
X340380Y42476D02*
Y53205D01*
X361837D01*
X337450Y234150D02*
X352062D01*
X328400Y225100D02*
X337450Y234150D01*
X310942Y114112D02*
Y176012D01*
X344220Y206425D02*
X352062D01*
X339862Y202067D02*
X344220Y206425D01*
X0Y11811D02*
X11811Y0D01*
X0Y236221D02*
X11811Y248031D01*
X320641Y32268D02*
X323141Y34768D01*
X325689Y210488D02*
X344223Y229022D01*
X358042D01*
X360062Y206425D02*
Y209820D01*
X358268Y211614D02*
X360062Y209820D01*
X334252Y211614D02*
X358268D01*
X319129Y155799D02*
X319342Y156012D01*
X354331Y248031D02*
X366142Y236221D01*
X354331Y0D02*
X366142Y11811D01*
X304173Y185430D02*
X304973D01*
X233900Y78703D02*
X236925Y81728D01*
X358042Y229022D02*
X360062Y231043D01*
X309542Y112712D02*
X310942Y114112D01*
X360062Y231043D02*
Y234279D01*
X344341Y24768D02*
X346841Y27268D01*
Y34268D01*
X323841Y24768D02*
X344341D01*
X301054Y155799D02*
X302743D01*
X352192Y223650D02*
X360062D01*
X352062Y217055D02*
X360062D01*
X241244Y47823D02*
X241382Y47685D01*
X328593Y29386D02*
X339888D01*
X345424Y35685D02*
X346841Y34268D01*
X339888Y35685D02*
X345424D01*
X244882Y89685D02*
Y94685D01*
X293026Y44252D02*
X301495D01*
X241082Y99885D02*
X253100D01*
X308688Y45126D02*
X312499D01*
X306200Y42638D02*
X308688Y45126D01*
X325689Y196457D02*
Y210488D01*
Y196457D02*
X337642Y184504D01*
X337697Y184449D01*
X337642Y72942D02*
Y184504D01*
X332677Y195874D02*
X341642Y186909D01*
X332677Y195874D02*
Y210039D01*
X334252Y211614D01*
X341642Y71209D02*
Y186909D01*
X329433Y59000D02*
X341642Y71209D01*
X301495Y44252D02*
X312243Y55000D01*
X334222D01*
X337854Y51368D01*
X312499Y45126D02*
X317373Y50000D01*
X327486D01*
X328141Y49345D01*
X192000Y65482D02*
Y65500D01*
X190000Y63500D02*
X192000Y65500D01*
X190000Y59000D02*
Y63500D01*
X183071Y248031D02*
Y257874D01*
Y-9843D02*
Y0D01*
X-9843Y124016D02*
X0D01*
X366142D02*
X375984D01*
X288976Y136024D02*
X300000Y125000D01*
X275000D02*
X287900Y112100D01*
X266000Y110583D02*
Y133417D01*
X256945Y133417D02*
Y144311D01*
Y190945D02*
X266000Y200000D01*
Y204000D01*
X254256Y147000D02*
X256945Y144311D01*
X281000Y132754D02*
X301242Y112512D01*
X273900Y148100D02*
Y155000D01*
Y148100D02*
X281000Y141000D01*
Y132754D02*
Y141000D01*
X280000Y149000D02*
X288976Y140024D01*
Y136024D02*
Y140024D01*
X266000Y133417D02*
Y163000D01*
X242378D02*
Y172978D01*
X247000Y177600D01*
X227500Y130551D02*
Y136500D01*
Y125500D02*
Y130551D01*
Y125500D02*
X230000Y123000D01*
X245600D01*
X215000Y144000D02*
Y148000D01*
X216449Y149449D01*
X222500D01*
X215000Y133370D02*
X219630Y138000D01*
X226000D01*
X227500Y136500D01*
X237500Y130551D02*
X244551D01*
X249000Y135000D01*
Y140000D01*
X232500Y130551D02*
Y138500D01*
X234000Y140000D01*
X239000D01*
X246000Y147000D01*
X254256D01*
X256945Y144311D02*
Y190945D01*
X232500Y149449D02*
Y158500D01*
X230000Y161000D02*
X232500Y158500D01*
X227500Y149449D02*
Y154500D01*
X221000Y161000D02*
X227500Y154500D01*
X154000Y69370D02*
X161370D01*
X159500Y69500D02*
X161500D01*
Y63000D02*
Y69500D01*
X154000Y80000D02*
Y85000D01*
X156346Y87347D01*
X187902D01*
X166000Y184000D02*
X174000D01*
Y188000D01*
X100000Y212000D02*
X133000D01*
X136000Y201000D02*
Y209000D01*
X133000Y212000D02*
X136000Y209000D01*
X203630Y124000D02*
Y131000D01*
X146000Y92370D02*
X153000D01*
X222500Y124500D02*
Y130551D01*
X174000Y188000D02*
X175000Y189000D01*
X181000D01*
X194370Y189630D02*
X205630Y178370D01*
Y172000D02*
Y178370D01*
X186000Y196000D02*
X198000D01*
X214000Y180000D01*
X244882Y94685D02*
X255685D01*
X259000Y98000D01*
Y103583D01*
X266000Y110583D01*
X289000Y11000D02*
X299000D01*
X291000Y15000D02*
X298000D01*
X268000Y32000D02*
X289000Y11000D01*
X153000Y92370D02*
X169000D01*
X176000D01*
X182000Y189630D02*
X190000D01*
X194370D01*
X176000Y92370D02*
X179370D01*
X182000Y95000D01*
X205630Y163000D02*
Y172000D01*
X184630Y197370D02*
X186000Y196000D01*
X184630Y197370D02*
Y202000D01*
X72500Y102500D02*
X80000D01*
X239415Y105315D02*
X244882D01*
D37*
X233300Y98100D02*
X234700D01*
X232189Y96989D02*
X233300Y98100D01*
X196666Y143866D02*
X199400D01*
X275000Y81600D02*
Y87400D01*
X265700Y96700D02*
X275000Y87400D01*
X265700Y96700D02*
Y101000D01*
X267254Y73854D02*
X275000Y81600D01*
X241244Y73854D02*
X267254D01*
X258100Y35600D02*
X260700Y33000D01*
X258100Y35600D02*
Y56600D01*
X248720Y65980D02*
X258100Y56600D01*
X241244Y65980D02*
X248720D01*
X238500Y24700D02*
X240158Y26357D01*
X224200Y24700D02*
X238500D01*
X232189Y86847D02*
Y96989D01*
X226284Y49916D02*
X229000Y47200D01*
X226284Y49916D02*
Y54957D01*
X199600Y156000D02*
X201000D01*
X196200Y152600D02*
X199600Y156000D01*
X192600Y146700D02*
Y156000D01*
X196200Y144332D02*
Y152600D01*
Y144332D02*
X196666Y143866D01*
X188947Y143047D02*
X192600Y146700D01*
X184476Y143047D02*
X188947D01*
X193879Y141079D02*
X196666Y143866D01*
X259811Y71886D02*
X268000Y63697D01*
X251600Y85400D02*
Y89500D01*
X241244Y77791D02*
X248291D01*
X241244Y69917D02*
X251583D01*
X221400Y116000D02*
X226500Y110900D01*
X235600Y114500D02*
X238800D01*
X233400Y116700D02*
X235600Y114500D01*
X225300Y116700D02*
X233400D01*
X223000Y119000D02*
X225300Y116700D01*
X220130Y27000D02*
X221900D01*
X222346Y96346D02*
X222900Y96900D01*
X234157Y46158D02*
Y54957D01*
Y60843D01*
X232500Y62500D02*
X234157Y60843D01*
X225000Y62500D02*
X232500D01*
X219551Y67949D02*
X225000Y62500D01*
X209354Y67949D02*
X219551D01*
X219000Y111000D02*
X222130Y107870D01*
Y104000D02*
Y107870D01*
X207500Y50130D02*
Y52913D01*
X215000Y60413D01*
Y65000D01*
X214020Y65980D02*
X215000Y65000D01*
X209354Y65980D02*
X214020D01*
X201449Y67949D02*
X209354D01*
X240158Y26357D02*
Y35827D01*
X245960Y79760D02*
X251600Y85400D01*
X241244Y79760D02*
X245960D01*
X300294Y30299D02*
X302263Y28331D01*
X309842D01*
X241244Y71886D02*
X259811D01*
X241244Y62043D02*
X246157D01*
X291226Y39368D02*
X295964Y34630D01*
X291226Y39368D02*
Y42452D01*
X293026Y44252D01*
X187902Y82598D02*
Y87347D01*
X216441Y86847D02*
Y97441D01*
X187902Y82598D02*
X194677Y75823D01*
X209354D01*
X196417Y69917D02*
X209354D01*
X222346Y86847D02*
Y96346D01*
X222130Y103130D02*
Y104000D01*
X216441Y97441D02*
X216500Y97500D01*
X222130Y103130D01*
X221900Y27000D02*
X224200Y24700D01*
X214472Y50528D02*
Y54957D01*
Y50528D02*
X216000Y49000D01*
X219000D01*
X221000Y47000D01*
X199000Y49720D02*
X209354Y60075D01*
X199000Y47000D02*
Y49720D01*
X221000Y44000D02*
Y46000D01*
Y47000D01*
X130000Y79000D02*
Y102000D01*
X113500Y62500D02*
X130000Y79000D01*
X100000Y62500D02*
X113500D01*
X137000Y104000D02*
X141000Y108000D01*
X130000Y102000D02*
X138000Y110000D01*
X140000Y112000D02*
X143236Y115236D01*
X136000Y112000D02*
X140000D01*
X123000Y99000D02*
X136000Y112000D01*
X138000Y114000D02*
X139299Y115299D01*
X134000Y114000D02*
X138000D01*
X118000Y98000D02*
X134000Y114000D01*
X126268Y129268D02*
X131524D01*
X122000Y125000D02*
X126268Y129268D01*
X125205Y133205D02*
X131524D01*
X117000Y125000D02*
X125205Y133205D01*
X124142Y137142D02*
X131524D01*
X123079Y141079D02*
X131524D01*
X104500Y122500D02*
X123079Y141079D01*
X100000Y122500D02*
X104500D01*
X119953Y148953D02*
X131524D01*
X113500Y142500D02*
X119953Y148953D01*
X100000Y142500D02*
X113500D01*
X100390Y152890D02*
X131524D01*
X138000Y110000D02*
X143000D01*
X147173Y114173D01*
X141000Y108000D02*
X146000D01*
X151110Y113110D01*
X100000Y52500D02*
X113500D01*
X137000Y76000D01*
Y104000D01*
X100000Y72500D02*
X113500D01*
X123000Y82000D01*
Y99000D01*
X118000Y87000D02*
Y98000D01*
X113500Y82500D02*
X118000Y87000D01*
X100000Y82500D02*
X113500D01*
X100000Y202500D02*
X113500D01*
X100000Y192500D02*
X113500D01*
X100000Y182500D02*
X113724D01*
X131524Y164701D01*
X100000Y172500D02*
X113500D01*
X125236Y160764D01*
X131524D01*
X100000Y162500D02*
X113500D01*
X119173Y156827D01*
X131524D01*
X122000Y107000D02*
Y125000D01*
X107500Y92500D02*
X122000Y107000D01*
X113000Y126000D02*
X124142Y137142D01*
X100000Y92500D02*
X107500D01*
X100000Y102500D02*
X107500D01*
X117000Y112000D01*
Y125000D01*
X100000Y112500D02*
X107500D01*
X113000Y118000D01*
Y126000D01*
X122016Y145016D02*
X131524D01*
X100000Y132500D02*
X109500D01*
X122016Y145016D01*
X145205Y172476D02*
Y177795D01*
X137000Y167000D02*
X140000D01*
X141268Y168268D01*
X113500Y202500D02*
X137000Y179000D01*
X144000D01*
X145205Y177795D01*
X135000Y169000D02*
X137000Y167000D01*
X135000Y169000D02*
Y171000D01*
X113500Y192500D02*
X135000Y171000D01*
X136000Y186000D02*
X139000Y183000D01*
X136000Y186000D02*
Y190370D01*
X157016Y172476D02*
Y176984D01*
X151260Y182740D02*
X157016Y176984D01*
X151110Y167890D02*
X153000Y166000D01*
X159000D02*
X161000Y168000D01*
X160953Y172476D02*
X161000Y172429D01*
X155000Y166000D02*
X155047Y166047D01*
X153000Y166000D02*
X155000D01*
X159000D01*
X151110Y172476D02*
Y178890D01*
X136000Y190370D02*
Y193000D01*
X139000Y196000D01*
X142000D01*
X144000Y198000D01*
Y201630D01*
X164890Y172476D02*
Y177890D01*
X151260Y182740D02*
Y186571D01*
X164890Y177890D02*
X166000Y179000D01*
X180000D01*
X174000Y194000D02*
Y194630D01*
X170000Y190000D02*
X174000Y194000D01*
X162169Y190000D02*
X170000D01*
X158740Y186571D02*
X162169Y190000D01*
X139000Y183000D02*
X143173D01*
X147173Y179000D01*
Y172476D02*
Y179000D01*
X144000Y186000D02*
X151110Y178890D01*
X144000Y186000D02*
Y191000D01*
X155000Y195429D02*
X165201D01*
X166000Y194630D01*
Y202000D01*
X155000Y202370D02*
Y209000D01*
X136000D02*
X144370D01*
X162921Y167079D02*
X165000Y165000D01*
X177000D01*
X184000Y172000D01*
X195000D01*
X189701Y127299D02*
X193000Y124000D01*
X189701Y127299D02*
Y127701D01*
X193000Y131000D01*
X155047Y119524D02*
Y124953D01*
X153000Y127000D02*
X155047Y124953D01*
X139000Y127000D02*
X153000D01*
X128000Y116000D02*
X139000Y127000D01*
X157016Y119524D02*
Y125016D01*
X159000Y127000D01*
X169000D02*
X170795Y125205D01*
Y119524D02*
Y125205D01*
X146000Y103000D02*
X153000D01*
Y110000D01*
X158984Y115984D01*
X160000Y109000D02*
X160953Y109953D01*
X162921Y115079D02*
X164000Y114000D01*
Y99000D02*
Y114000D01*
X163370Y98370D02*
X164000Y99000D01*
X160000Y98370D02*
X163370D01*
X164890Y116110D02*
X169000Y112000D01*
Y103000D02*
X176000D01*
X166858Y135858D02*
X172079Y141079D01*
X166858Y119524D02*
Y127000D01*
Y135858D01*
X159000Y127000D02*
X166858D01*
X169000D01*
X174732Y115268D02*
X176000Y114000D01*
X172764Y119524D02*
Y124764D01*
X175000Y127000D01*
X177000D01*
X160953Y172476D02*
Y181953D01*
X163000Y184000D01*
X166000D01*
X182000Y179000D02*
Y181000D01*
Y179000D02*
X190000D01*
X169000Y103000D02*
Y111000D01*
Y112000D01*
X299000Y11000D02*
X302263Y14263D01*
Y20752D01*
X176000Y114000D02*
X180000D01*
X182000Y116000D01*
X177000Y127000D02*
X185000Y119000D01*
X218000Y111000D02*
X219000D01*
X188764Y160764D02*
X191000Y163000D01*
X193000D01*
X139299Y115299D02*
Y119524D01*
X164890Y116110D02*
Y119524D01*
X161000Y168000D02*
Y172429D01*
X155047Y166047D02*
Y172476D01*
X151110Y167890D02*
Y172476D01*
X174732Y115268D02*
Y119524D01*
X184476Y127299D02*
X189701D01*
X143236Y115236D02*
Y119524D01*
X158984Y115984D02*
Y119524D01*
X172079Y141079D02*
X184476D01*
X193879D01*
X147173Y114173D02*
Y119524D01*
X160953Y109953D02*
Y119524D01*
X184476Y160764D02*
X188764D01*
X151110Y113110D02*
Y119524D01*
X162921Y115079D02*
Y119524D01*
X141268Y168268D02*
Y172476D01*
X162921Y167079D02*
Y172476D01*
X193000Y163000D02*
X195000Y161000D01*
X180000Y179000D02*
X182000Y181000D01*
X174000Y194630D02*
Y202000D01*
X158984Y172476D02*
Y186571D01*
X185000Y119000D02*
X223000D01*
X182000Y116000D02*
X221400D01*
X7028Y211881D02*
Y215292D01*
Y213587D01*
X12145D01*
X7028Y219556D02*
Y217850D01*
X7881Y216998D01*
X11292D01*
X12145Y217850D01*
Y219556D01*
X11292Y220409D01*
X7881D01*
X7028Y219556D01*
X12145Y222114D02*
X7028D01*
Y224672D01*
X7881Y225525D01*
X9586D01*
X10439Y224672D01*
Y222114D01*
X16855Y215292D02*
X16002Y214439D01*
Y212734D01*
X16855Y211881D01*
X20266D01*
X21119Y212734D01*
Y214439D01*
X20266Y215292D01*
X16002Y220409D02*
Y216998D01*
X21119D01*
Y220409D01*
X18561Y216998D02*
Y218703D01*
X16002Y222114D02*
X21119D01*
Y225525D01*
X16002Y227231D02*
X21119D01*
Y230641D01*
X110984Y29700D02*
X116100D01*
Y32258D01*
X115247Y33111D01*
X114394D01*
X113542Y32258D01*
Y29700D01*
Y32258D01*
X112689Y33111D01*
X111836D01*
X110984Y32258D01*
Y29700D01*
X116100Y34817D02*
X112689D01*
X110984Y36522D01*
X112689Y38227D01*
X116100D01*
X113542D01*
Y34817D01*
X110984Y39933D02*
X116100D01*
Y43344D01*
X111836Y45049D02*
X110984Y45902D01*
Y47608D01*
X111836Y48460D01*
X115247D01*
X116100Y47608D01*
Y45902D01*
X115247Y45049D01*
X111836D01*
X122184Y30200D02*
X125594D01*
X127300Y31905D01*
X125594Y33611D01*
X122184D01*
X123036Y38727D02*
X122184Y37875D01*
Y36169D01*
X123036Y35317D01*
X126447D01*
X127300Y36169D01*
Y37875D01*
X126447Y38727D01*
X123036Y43844D02*
X122184Y42991D01*
Y41286D01*
X123036Y40433D01*
X126447D01*
X127300Y41286D01*
Y42991D01*
X126447Y43844D01*
X248684Y189311D02*
Y185900D01*
X251242D01*
X250389Y187606D01*
Y188458D01*
X251242Y189311D01*
X252947D01*
X253800Y188458D01*
Y186753D01*
X252947Y185900D01*
X248684Y191016D02*
X252095D01*
X253800Y192722D01*
X252095Y194427D01*
X248684D01*
X34400Y30016D02*
Y24900D01*
X36958D01*
X37811Y25753D01*
Y26605D01*
X36958Y27458D01*
X34400D01*
X36958D01*
X37811Y28311D01*
Y29164D01*
X36958Y30016D01*
X34400D01*
X39516Y24900D02*
Y28311D01*
X41222Y30016D01*
X42927Y28311D01*
Y24900D01*
Y27458D01*
X39516D01*
X44633Y30016D02*
Y24900D01*
X48044D01*
X54866Y29164D02*
X55719Y30016D01*
X57424D01*
X58277Y29164D01*
Y25753D01*
X57424Y24900D01*
X55719D01*
X54866Y25753D01*
Y29164D01*
X33200Y219816D02*
Y214700D01*
X35758D01*
X36611Y215553D01*
Y216406D01*
X35758Y217258D01*
X33200D01*
X35758D01*
X36611Y218111D01*
Y218964D01*
X35758Y219816D01*
X33200D01*
X38317Y214700D02*
Y218111D01*
X40022Y219816D01*
X41727Y218111D01*
Y214700D01*
Y217258D01*
X38317D01*
X43433Y219816D02*
Y214700D01*
X46844D01*
X53666D02*
X55371D01*
X54519D01*
Y219816D01*
X53666Y218964D01*
X61340Y219816D02*
X59635Y218964D01*
X57929Y217258D01*
Y215553D01*
X58782Y214700D01*
X60488D01*
X61340Y215553D01*
Y216406D01*
X60488Y217258D01*
X57929D01*
D38*
X287400Y218000D02*
X294500Y225100D01*
X256900Y205000D02*
X266000D01*
X255000Y206900D02*
X256900Y205000D01*
X255000Y206900D02*
Y210000D01*
X169200Y31800D02*
Y36700D01*
Y31800D02*
X170200Y30800D01*
X143858Y32958D02*
X145400Y34500D01*
X143858Y11811D02*
Y32958D01*
X133858Y34758D02*
X138200Y39100D01*
X133858Y11811D02*
Y34758D01*
X153900Y11853D02*
Y24800D01*
X153858Y11811D02*
X153900Y11853D01*
X165900Y4500D02*
X177700D01*
X163858Y6542D02*
X165900Y4500D01*
X163858Y6542D02*
Y11811D01*
X173858D02*
Y20842D01*
X170200Y24500D02*
X173858Y20842D01*
X170200Y24500D02*
Y30800D01*
X266000Y204000D02*
Y205000D01*
X255000Y210000D02*
X256000D01*
X248900Y218000D02*
X287400D01*
X289622Y205000D02*
Y215778D01*
X287400Y218000D02*
X289622Y215778D01*
X196000Y205000D02*
X202000D01*
X236252Y188348D02*
X247000Y177600D01*
X236252Y188348D02*
Y205000D01*
Y214252D01*
X240000Y218000D01*
X248900D01*
X202000Y205000D02*
X213000D01*
X218000Y190000D02*
X223000Y185000D01*
X218000Y190000D02*
Y200000D01*
X213000Y205000D02*
X218000Y200000D01*
D39*
X199500Y55000D02*
X204532Y60031D01*
X196500Y56500D02*
X201665Y61665D01*
X254700Y66800D02*
X257600D01*
X254023Y75823D02*
X258400Y80200D01*
X248291Y77791D02*
X254000Y83500D01*
X251583Y69917D02*
X254700Y66800D01*
X241244Y75823D02*
X254023D01*
X166300Y53700D02*
Y59300D01*
X164970Y52370D02*
X166300Y53700D01*
X161500Y52370D02*
X164970D01*
X166300Y59300D02*
X168500Y61500D01*
X222900Y96900D02*
Y97167D01*
X222567Y97500D02*
X222900Y97167D01*
X201665Y61665D02*
X202563D01*
X199200Y65700D02*
X201449Y67949D01*
X202563Y61665D02*
X204910Y64012D01*
X205725Y62043D02*
X209354D01*
X204532Y60849D02*
X205725Y62043D01*
X204532Y60031D02*
Y60849D01*
X204910Y64012D02*
X209354D01*
X226882Y40185D02*
X228185D01*
X236126Y44094D02*
Y54957D01*
X200500Y81500D02*
Y87347D01*
X240000Y90720D02*
Y98803D01*
X236126Y86847D02*
X240000Y90720D01*
X236126Y54957D02*
Y67943D01*
X314842Y41768D02*
X315774Y42700D01*
X318500D01*
X211913Y84287D02*
X214472Y86847D01*
X236925Y81728D02*
X241244D01*
X318342Y24768D02*
X323841D01*
X246157Y62043D02*
X248300Y59900D01*
X241244Y47823D02*
Y60075D01*
X309842Y30299D02*
X312810Y30299D01*
X318342Y24768D01*
X309842Y34236D02*
X312810D01*
X314842Y36268D01*
Y41768D01*
X306200Y39846D02*
Y42638D01*
X309842Y32268D02*
X320641D01*
X187000Y71500D02*
X189354Y73854D01*
X173500Y71500D02*
X187000D01*
X171158Y73843D02*
X173500Y71500D01*
X171158Y73843D02*
Y79000D01*
X169658Y80500D02*
X171158Y79000D01*
X181000Y53803D02*
Y61500D01*
X192000Y65500D02*
X196417Y69917D01*
X209354Y81728D02*
X212983D01*
X216882Y77830D01*
X241244Y86047D02*
X244882Y89685D01*
X241244Y81728D02*
Y86047D01*
X168500Y61500D02*
X181000D01*
X200500Y87347D02*
Y96000D01*
X202000Y97500D01*
X205870D01*
X200500Y81500D02*
X204209Y77791D01*
X209354D01*
X189354Y73854D02*
X209354D01*
X191386Y71886D02*
X209354D01*
X228185Y40185D02*
X234157Y46158D01*
X211500Y104000D02*
X211913Y103587D01*
X209354Y81728D02*
X211913Y84287D01*
Y103587D01*
X211500Y104000D02*
Y108500D01*
X208000Y112000D02*
X209000Y111000D01*
X211500Y108500D01*
X181000Y61500D02*
X191386Y71886D01*
X161500Y80500D02*
X169658D01*
D40*
X298000Y15000D02*
X300294Y17294D01*
Y20752D01*
D41*
X285500Y56336D02*
X288124D01*
X286812D01*
Y52400D01*
X289436Y56336D02*
X292060Y52400D01*
Y56336D02*
X289436Y52400D01*
X221024Y229124D02*
X219056D01*
X218400Y228468D01*
Y227156D01*
X219056Y226500D01*
X221024D01*
X222992D02*
X224304D01*
X224960Y227156D01*
Y228468D01*
X224304Y229124D01*
X222992D01*
X222336Y228468D01*
Y227156D01*
X222992Y226500D01*
X226272D02*
Y229124D01*
X226927D01*
X227583Y228468D01*
Y226500D01*
Y228468D01*
X228239Y229124D01*
X228895Y228468D01*
Y226500D01*
X247332Y230400D02*
Y233024D01*
X249300Y234336D02*
Y235648D01*
Y234992D01*
X245364D01*
X246020Y234336D01*
X249300Y240239D02*
Y237615D01*
X246676Y240239D01*
X246020D01*
X245364Y239583D01*
Y238271D01*
X246020Y237615D01*
X207332Y230500D02*
Y233124D01*
X206020Y231812D02*
X208644D01*
X209300Y234436D02*
Y235748D01*
Y235092D01*
X205364D01*
X206020Y234436D01*
X209300Y240339D02*
Y237716D01*
X206676Y240339D01*
X206020D01*
X205364Y239683D01*
Y238371D01*
X206020Y237716D01*
X281496Y186196D02*
X284120D01*
X285432Y184228D02*
X286744D01*
X286088D01*
Y188164D01*
X285432Y187508D01*
X291335Y184228D02*
X288712D01*
X291335Y186852D01*
Y187508D01*
X290679Y188164D01*
X289368D01*
X288712Y187508D01*
X292647Y188164D02*
Y185540D01*
X293959Y184228D01*
X295271Y185540D01*
Y188164D01*
X293000Y148936D02*
Y145000D01*
X295624D01*
X281496Y175196D02*
X284120D01*
X282808Y176508D02*
Y173884D01*
X285432Y173228D02*
X286744D01*
X286088D01*
Y177164D01*
X285432Y176508D01*
X291335Y173228D02*
X288712D01*
X291335Y175852D01*
Y176508D01*
X290679Y177164D01*
X289368D01*
X288712Y176508D01*
X292647Y177164D02*
Y174540D01*
X293959Y173228D01*
X295271Y174540D01*
Y177164D01*
X288057Y166666D02*
X287401Y167322D01*
X286089D01*
X285433Y166666D01*
Y164042D01*
X286089Y163386D01*
X287401D01*
X288057Y164042D01*
Y165354D01*
X286745D01*
X289369Y163386D02*
Y167322D01*
X291993Y163386D01*
Y167322D01*
X293305D02*
Y163386D01*
X295272D01*
X295928Y164042D01*
Y166666D01*
X295272Y167322D01*
X293305D01*
X286376Y149624D02*
Y147656D01*
X287032Y147000D01*
X288344D01*
X289000Y147656D01*
Y149624D01*
X286376Y151592D02*
Y152904D01*
X287032Y153560D01*
X289000D01*
Y151592D01*
X288344Y150936D01*
X287688Y151592D01*
Y153560D01*
X289000Y154871D02*
X286376D01*
Y156839D01*
X287032Y157495D01*
X289000D01*
X281724Y101380D02*
X281068Y102036D01*
X279756D01*
X279100Y101380D01*
Y98756D01*
X279756Y98100D01*
X281068D01*
X281724Y98756D01*
Y100068D01*
X280412D01*
X283036Y98100D02*
Y102036D01*
X285660Y98100D01*
Y102036D01*
X286971D02*
Y98100D01*
X288939D01*
X289595Y98756D01*
Y101380D01*
X288939Y102036D01*
X286971D01*
X278700Y88680D02*
X279356Y89336D01*
X280668D01*
X281324Y88680D01*
Y88024D01*
X280668Y87368D01*
X280012D01*
X280668D01*
X281324Y86712D01*
Y86056D01*
X280668Y85400D01*
X279356D01*
X278700Y86056D01*
X282636Y85400D02*
Y86056D01*
X283292D01*
Y85400D01*
X282636D01*
X285915Y88680D02*
X286572Y89336D01*
X287883D01*
X288539Y88680D01*
Y88024D01*
X287883Y87368D01*
X287227D01*
X287883D01*
X288539Y86712D01*
Y86056D01*
X287883Y85400D01*
X286572D01*
X285915Y86056D01*
X280524Y79880D02*
X279868Y80536D01*
X278556D01*
X277900Y79880D01*
Y79224D01*
X278556Y78568D01*
X279868D01*
X280524Y77912D01*
Y77256D01*
X279868Y76600D01*
X278556D01*
X277900Y77256D01*
X281836Y80536D02*
Y76600D01*
X283148Y77912D01*
X284460Y76600D01*
Y80536D01*
X288395Y79880D02*
X287739Y80536D01*
X286427D01*
X285771Y79880D01*
Y77256D01*
X286427Y76600D01*
X287739D01*
X288395Y77256D01*
X280524Y70580D02*
X279868Y71236D01*
X278556D01*
X277900Y70580D01*
Y69924D01*
X278556Y69268D01*
X279868D01*
X280524Y68612D01*
Y67956D01*
X279868Y67300D01*
X278556D01*
X277900Y67956D01*
X281836Y71236D02*
Y67300D01*
X283148Y68612D01*
X284460Y67300D01*
Y71236D01*
X285771D02*
Y67300D01*
X287739D01*
X288395Y67956D01*
Y70580D01*
X287739Y71236D01*
X285771D01*
X224300Y2100D02*
Y6036D01*
X226268D01*
X226924Y5380D01*
Y4068D01*
X226268Y3412D01*
X224300D01*
X225612D02*
X226924Y2100D01*
X228236D02*
X230204D01*
X230860Y2756D01*
X230204Y3412D01*
X228892D01*
X228236Y4068D01*
X228892Y4724D01*
X230860D01*
X232827Y5380D02*
Y4724D01*
X232172D01*
X233483D01*
X232827D01*
Y2756D01*
X233483Y2100D01*
X204600Y5836D02*
Y1900D01*
X206568D01*
X207224Y2556D01*
Y3212D01*
X206568Y3868D01*
X204600D01*
X206568D01*
X207224Y4524D01*
Y5180D01*
X206568Y5836D01*
X204600D01*
X209192Y1900D02*
X210504D01*
X211160Y2556D01*
Y3868D01*
X210504Y4524D01*
X209192D01*
X208536Y3868D01*
Y2556D01*
X209192Y1900D01*
X213127D02*
X214439D01*
X215095Y2556D01*
Y3868D01*
X214439Y4524D01*
X213127D01*
X212472Y3868D01*
Y2556D01*
X213127Y1900D01*
X217063Y5180D02*
Y4524D01*
X216407D01*
X217719D01*
X217063D01*
Y2556D01*
X217719Y1900D01*
X293000Y157936D02*
Y154000D01*
Y155968D01*
X295624D01*
Y157936D01*
Y154000D01*
D42*
X123800Y23000D02*
D03*
X113800D02*
D03*
X236000Y237000D02*
D03*
X226000D02*
D03*
X216000D02*
D03*
X113858Y11811D02*
D03*
X123858D02*
D03*
X133858D02*
D03*
X143858D02*
D03*
X153858D02*
D03*
X163858D02*
D03*
X173858D02*
D03*
X302743Y145799D02*
D03*
Y155799D02*
D03*
Y165799D02*
D03*
Y175799D02*
D03*
Y185799D02*
D03*
X294900Y71100D02*
D03*
Y81100D02*
D03*
Y91100D02*
D03*
Y101100D02*
D03*
D43*
X329331Y76142D02*
D03*
X319331Y81142D02*
D03*
X329331Y86142D02*
D03*
X319331Y91142D02*
D03*
X329331Y96142D02*
D03*
X319331Y101142D02*
D03*
X329331Y106142D02*
D03*
X319331Y111142D02*
D03*
X329342Y151012D02*
D03*
X319342Y156012D02*
D03*
X329342Y161012D02*
D03*
X319342Y166012D02*
D03*
X329342Y171012D02*
D03*
X319342Y176012D02*
D03*
X329342Y181012D02*
D03*
X319342Y186012D02*
D03*
D44*
X354331Y71142D02*
D03*
Y116142D02*
D03*
X354342Y146012D02*
D03*
Y191012D02*
D03*
D45*
X306436Y235012D02*
D03*
X316436D02*
D03*
X326436D02*
D03*
X276100Y185300D02*
D03*
X234700Y98100D02*
D03*
X251300Y44400D02*
D03*
X186900Y14000D02*
D03*
X153800Y25400D02*
D03*
X169200Y36700D02*
D03*
X147000Y52500D02*
D03*
X220800Y10200D02*
D03*
X260700Y33000D02*
D03*
X184100Y32000D02*
D03*
X210800Y20300D02*
D03*
X231400Y29700D02*
D03*
X229000Y47200D02*
D03*
X201000Y156000D02*
D03*
X192600D02*
D03*
X205600Y143000D02*
D03*
X198000Y137200D02*
D03*
X147700Y65300D02*
D03*
X257600Y66800D02*
D03*
X271400Y68600D02*
D03*
X258400Y80200D02*
D03*
X268200Y86000D02*
D03*
X251600Y89500D02*
D03*
X275500Y94500D02*
D03*
X226500Y110900D02*
D03*
X238800Y114500D02*
D03*
X246800Y117000D02*
D03*
X249000Y126200D02*
D03*
X72500Y42500D02*
D03*
Y122500D02*
D03*
Y202500D02*
D03*
Y192500D02*
D03*
Y182500D02*
D03*
Y172500D02*
D03*
Y162500D02*
D03*
Y152500D02*
D03*
Y142500D02*
D03*
Y132500D02*
D03*
Y112500D02*
D03*
X72500Y92500D02*
D03*
X72500Y82500D02*
D03*
Y72500D02*
D03*
X72500Y62500D02*
D03*
Y52500D02*
D03*
X100000Y202500D02*
D03*
Y52500D02*
D03*
Y62500D02*
D03*
Y72500D02*
D03*
Y82500D02*
D03*
Y92500D02*
D03*
Y102500D02*
D03*
Y112500D02*
D03*
Y122500D02*
D03*
X100000Y132500D02*
D03*
X100000Y142500D02*
D03*
Y152500D02*
D03*
Y162500D02*
D03*
Y172500D02*
D03*
Y182500D02*
D03*
Y192500D02*
D03*
Y42500D02*
D03*
X265700Y101000D02*
D03*
X309200Y65500D02*
D03*
X304300Y56100D02*
D03*
X222900Y96900D02*
D03*
X199200Y65700D02*
D03*
X313500Y209500D02*
D03*
X318500Y42700D02*
D03*
X314100Y12400D02*
D03*
X329800Y18165D02*
D03*
X309400Y98900D02*
D03*
X252400Y35200D02*
D03*
X287900Y112100D02*
D03*
X294500Y224900D02*
D03*
X247000Y177600D02*
D03*
X310942Y176012D02*
D03*
X309542Y112712D02*
D03*
X301242Y112512D02*
D03*
X266500Y184000D02*
D03*
X273900Y155000D02*
D03*
X253100Y99885D02*
D03*
X241382Y47685D02*
D03*
X320641Y32268D02*
D03*
X339862Y202067D02*
D03*
X327486Y50000D02*
D03*
X190000Y59000D02*
D03*
X223000Y185000D02*
D03*
X300000Y125000D02*
D03*
X255000Y210000D02*
D03*
X248900Y218000D02*
D03*
X249000Y140000D02*
D03*
X230000Y161000D02*
D03*
X221000D02*
D03*
X199000Y47000D02*
D03*
X221000Y46000D02*
D03*
X100000Y212000D02*
D03*
X128000Y116000D02*
D03*
X214000Y180000D02*
D03*
X169000Y111000D02*
D03*
X209000D02*
D03*
X218000D02*
D03*
X183000Y98000D02*
D03*
X72500Y102500D02*
D03*
D46*
X94488Y11811D02*
D03*
Y236221D02*
D03*
X259842D02*
D03*
Y11811D02*
D03*
D47*
X20400Y42500D02*
D03*
Y52500D02*
D03*
Y62500D02*
D03*
Y72500D02*
D03*
Y82500D02*
D03*
Y92500D02*
D03*
Y102500D02*
D03*
Y112500D02*
D03*
Y122500D02*
D03*
Y132500D02*
D03*
Y142500D02*
D03*
Y152500D02*
D03*
Y162500D02*
D03*
Y172500D02*
D03*
Y182500D02*
D03*
Y192500D02*
D03*
Y202500D02*
D03*
X10000Y42500D02*
D03*
Y52500D02*
D03*
Y62500D02*
D03*
Y72500D02*
D03*
Y82500D02*
D03*
Y92500D02*
D03*
Y102500D02*
D03*
Y112500D02*
D03*
Y122500D02*
D03*
Y132500D02*
D03*
Y142500D02*
D03*
Y152500D02*
D03*
Y162500D02*
D03*
Y172500D02*
D03*
Y182500D02*
D03*
Y192500D02*
D03*
Y202500D02*
D03*
X60000Y202500D02*
D03*
Y192500D02*
D03*
Y182500D02*
D03*
Y172500D02*
D03*
Y162500D02*
D03*
Y152500D02*
D03*
Y142500D02*
D03*
Y132500D02*
D03*
Y122500D02*
D03*
Y112500D02*
D03*
Y102500D02*
D03*
Y92500D02*
D03*
Y82500D02*
D03*
Y72500D02*
D03*
Y62500D02*
D03*
Y52500D02*
D03*
Y42500D02*
D03*
X40000Y202500D02*
D03*
X40000Y192500D02*
D03*
Y182500D02*
D03*
Y172500D02*
D03*
Y162500D02*
D03*
Y152500D02*
D03*
Y142500D02*
D03*
Y132500D02*
D03*
Y122500D02*
D03*
X40000Y112500D02*
D03*
X40000Y102500D02*
D03*
Y92500D02*
D03*
Y82500D02*
D03*
Y72500D02*
D03*
Y62500D02*
D03*
Y52500D02*
D03*
Y42500D02*
D03*
D48*
X295964Y34630D02*
D03*
X300294D02*
D03*
X304625D02*
D03*
X295964Y30299D02*
D03*
X300294D02*
D03*
X304625D02*
D03*
X295964Y25969D02*
D03*
X300294D02*
D03*
X304625D02*
D03*
M02*
