M48
;Layer_Color=9474304
;FILE_FORMAT=2:5
INCH,LZ
;TYPE=PLATED
T1F00S00C0.00787
T2F00S00C0.01968
T3F00S00C0.02362
T4F00S00C0.02756
T5F00S00C0.03543
T6F00S00C0.03780
T7F00S00C0.03937
T8F00S00C0.12638
;TYPE=NON_PLATED
T9F00S00C0.03937
%
T01
X0295964Y0025969
Y0030299
Y003463
X0300294
X0304625
Y0030299
X0300294
Y0025969
X0304625
T02
X03141Y00124
X03298Y0018165
X0320641Y0032268
X03185Y00427
X0327486Y005
X03043Y00561
X03092Y00655
X02714Y00686
X02682Y0086
X02755Y00945
X02516Y00895
X02576Y00668
X02513Y00444
X02524Y00352
X02607Y0033
X02314Y00297
X0229Y00472
X0221Y0046
X0241382Y0047685
X0199Y0047
X01992Y00657
X019Y0059
X01841Y0032
X01692Y00367
X01538Y00254
X0153858Y0011811
X0143858
X0133858
X0123858
X0113858
X0163858
X0173858
X01869Y0014
X02108Y00203
X02208Y00102
X0147Y00525
X01477Y00653
X01Y00625
Y00525
Y00425
X00725
Y00525
Y00625
X00725Y00725
Y00825
X00725Y00925
X01Y00925
Y00825
Y00725
Y01025
Y01125
Y01225
X01Y01325
X01Y01425
Y01525
Y01625
Y01725
Y01825
Y01925
Y02025
Y0212
X00725Y02025
Y01925
Y01825
Y01725
Y01625
Y01525
Y01425
Y01325
Y01225
Y01125
Y01025
X0128Y0116
X0169Y0111
X0183Y0098
X0209Y0111
X0218
X02265Y01109
X02388Y01145
X02347Y00981
X02229Y00969
X02531Y0099885
X0249Y01262
Y014
X0247Y01776
X0223Y0185
X0214Y018
X0221Y0161
X023
X0201Y0156
X01926
X0198Y01372
X02056Y0143
X0216Y0237
X0226
X0236
X02489Y0218
X0255Y021
X02665Y0184
X02761Y01853
X0302743Y0185799
Y0175799
X0310942Y0176012
X0302743Y0165799
Y0155799
Y0145799
X03Y0125
X0301242Y0112512
X0309542Y0112712
X03094Y00989
X02879Y01121
X02739Y0155
X02945Y02249
X03135Y02095
X0339862Y0202067
T03
X0094488Y0011811
Y0236221
X0259842
X0306436Y0235012
X0316436
X0326436
T04
X02584Y00802
X02468Y0117
X02657Y0101
T05
X0319331Y0081142
Y0091142
X0329331Y0086142
Y0076142
Y0096142
Y0106142
X0319331Y0101142
Y0111142
X0319342Y0156012
Y0166012
Y0176012
Y0186012
X0329342Y0181012
Y0171012
Y0161012
Y0151012
T06
X02949Y00711
Y00811
Y00911
X01238Y0023
X01138
X02949Y01011
T07
X0259842Y0011811
X006Y00425
Y00525
Y00625
Y00725
Y00825
Y00925
X004Y00925
Y00825
Y00725
Y00625
Y00525
Y00425
X00204Y00425
Y00525
Y00625
Y00725
Y00825
Y00925
X001
Y00825
Y00725
Y00625
Y00525
Y00425
Y01025
Y01125
Y01225
Y01325
Y01425
Y01525
Y01625
Y01725
Y01825
Y01925
Y02025
X00204
Y01925
Y01825
Y01725
Y01625
Y01525
Y01425
Y01325
Y01225
Y01125
Y01025
X004Y01025
X004Y01125
X004Y01225
Y01325
Y01425
Y01525
Y01625
Y01725
Y01825
Y01925
X004Y02025
X006
Y01925
Y01825
Y01725
Y01625
Y01525
Y01425
Y01325
Y01225
Y01125
Y01025
T08
X0354331Y0071142
Y0116142
X0354342Y0146012
Y0191012
T09
X035042Y0027024
Y0044346
M30
